<svg xmlns="http://www.w3.org/2000/svg" width="16" height="16" viewBox="-850 -1878 98 96">
  <path fill="currentColor" d="m -852.35905,-1798.9478 c 0.0625,0.059 0.13281,0.1093 0.21094,0.1484 l 9.3086,4.6172 h -0.004 c 0.36328,0.1797 0.80469,0.1094 1.0898,-0.1758 l 4.3633,-4.3633 -8.2969,-8.3008 -6.7188,6.7188 h 0.004 c -0.18359,0.1836 -0.28516,0.4336 -0.27734,0.6914 0.008,0.2618 0.12109,0.5039 0.3125,0.6797 z m 17.879,0.4453 h 0.004 c 0.375,0.2617 0.88672,0.2187 1.2109,-0.1055 2.5742,-2.5742 4.6758,-3.6172 6.5586,-3.9922 1.8867,-0.375 3.6289,-0.074 5.5,0.2773 1.8711,0.3516 3.8672,0.7579 6.1055,0.3633 1.6172,-0.2851 3.3164,-0.9961 5.1367,-2.3672 l -30.105,-30.117 c -1.3828,1.8242 -2.0977,3.5312 -2.3828,5.1523 -0.39453,2.2344 0.0234,4.2305 0.36719,6.0977 0.35156,1.8711 0.65234,3.6133 0.27734,5.5 -0.375,1.8828 -1.4258,3.9805 -4,6.5508 h -0.008 c -0.30469,0.3008 -0.36328,0.7696 -0.14844,1.1406 l 11.48,11.488 z m 25.961,-7.0391 c 0.22656,-0.211 0.45312,-0.4297 0.6875,-0.6602 0.0234,0 0.0469,0 0.0703,0 l 49.293,-55.824 h -0.004 c 0.33203,-0.375 0.3125,-0.9414 -0.043,-1.2969 l -22.496,-22.492 h 0.004 c -0.35156,-0.3476 -0.91406,-0.3672 -1.2891,-0.039 l -55.852,49.266 v 0.043 c -0.0156,0 -0.0312,0 -0.0508,0 -0.22266,0.2227 -0.4375,0.4453 -0.64062,0.668 z"/>
</svg>
