<?xml version="1.0" encoding="UTF-8"?>
<svg xmlns="http://www.w3.org/2000/svg" width="16" height="16" viewBox="0 0 16 16">
  <path fill="currentColor" d="M7 1h2l.35 1.45c.38.12.74.27 1.08.45l1.27-.78 1.42 1.42-.78 1.27c.18.34.33.7.45 1.08L14.25 6.25v2l-1.46.36c-.12.38-.27.74-.45 1.08l.78 1.27-1.42 1.42-1.27-.78c-.34.18-.7.33-1.08.45L9 13.5H7l-.35-1.45a5.75 5.75 0 0 1-1.08-.45l-1.27.78-1.42-1.42.78-1.27a5.75 5.75 0 0 1-.45-1.08L1.75 8.25v-2l1.46-.36c.12-.38.27-.74.45-1.08l-.78-1.27L4.3 2.12l1.27.78c.34-.18.7-.33 1.08-.45L7 1Zm1 4a2.25 2.25 0 1 0 0 4.5A2.25 2.25 0 0 0 8 5Z"/>
</svg>
