<?xml version="1.0" encoding="UTF-8"?>
<svg xmlns="http://www.w3.org/2000/svg" width="16" height="16" viewBox="0 0 16 16">
  <path fill="currentColor" d="M2.25 2h11.5C14.99 2 16 3.01 16 4.25v7.5C16 12.99 14.99 14 13.75 14H2.25A2.25 2.25 0 0 1 0 11.75v-7.5C0 3.01 1.01 2 2.25 2ZM2 4.25v7.5c0 .14.11.25.25.25h11.5c.14 0 .25-.11.25-.25v-7.5a.25.25 0 0 0-.25-.25H2.25a.25.25 0 0 0-.25.25ZM3 5h2v2H3V5Zm3 0h2v2H6V5Zm3 0h2v2H9V5Zm3 0h1v2h-1V5ZM3 8h1v2H3V8Zm2 0h2v2H5V8Zm3 0h2v2H8V8Zm3 0h2v2h-2V8Zm-6 3h6v1H5v-1Z"/>
</svg>
